<svg width="252" height="87" viewBox="0 0 252 87" fill="none" xmlns="http://www.w3.org/2000/svg">
<path d="M96.0222 69.1616C96.1673 69.1616 96.286 69.1151 96.3783 69.022C96.4707 68.929 96.5168 68.8093 96.5168 68.6631V63.7206H101.381V68.6631C101.381 68.8093 101.427 68.929 101.519 69.022C101.612 69.1151 101.731 69.1616 101.876 69.1616H104.415C104.56 69.1616 104.675 69.1151 104.768 69.022C104.86 68.929 104.906 68.8093 104.906 68.6631V55.7634C104.906 55.6172 104.86 55.5008 104.768 55.4078C104.675 55.3147 104.557 55.2682 104.415 55.2682H101.876C101.731 55.2682 101.612 55.3147 101.519 55.4078C101.427 55.5008 101.381 55.6172 101.381 55.7634V60.5464H96.5168V55.7634C96.5168 55.6172 96.4707 55.5008 96.3783 55.4078C96.286 55.3147 96.1673 55.2682 96.0222 55.2682H93.4829C93.3378 55.2682 93.2191 55.3147 93.1268 55.4078C93.0344 55.5008 92.9883 55.6172 92.9883 55.7634V68.6631C92.9883 68.8093 93.0344 68.929 93.1268 69.022C93.2191 69.1151 93.3378 69.1616 93.4829 69.1616H96.0222ZM110.789 69.1616C110.934 69.1616 111.05 69.1151 111.142 69.022C111.235 68.929 111.281 68.8093 111.281 68.6631V55.7634C111.281 55.6172 111.235 55.5008 111.142 55.4078C111.05 55.3147 110.931 55.2682 110.789 55.2682H108.151C108.006 55.2682 107.887 55.3147 107.795 55.4078C107.703 55.5008 107.657 55.6172 107.657 55.7634V68.6631C107.657 68.8093 107.703 68.929 107.795 69.022C107.887 69.1151 108.006 69.1616 108.151 69.1616H110.789ZM123.004 68.7163C123.941 68.2875 124.666 67.6659 125.181 66.8616C125.692 66.0539 125.949 65.0833 125.949 63.9433V61.6831C125.949 61.5368 125.903 61.4139 125.81 61.3141C125.718 61.2144 125.599 61.1646 125.454 61.1646H120.495C120.349 61.1646 120.227 61.2144 120.132 61.3141C120.033 61.4139 119.983 61.5335 119.983 61.6831V63.1522C119.983 63.2985 120.033 63.4214 120.132 63.5212C120.231 63.6209 120.349 63.6707 120.495 63.6707H122.345V64.0463C122.345 64.6147 122.232 65.08 122.011 65.4456C121.787 65.8079 121.484 66.0772 121.095 66.25C120.709 66.4228 120.264 66.5092 119.766 66.5092C119.03 66.5092 118.44 66.3032 117.992 65.8943C117.546 65.4855 117.302 64.8174 117.263 63.8901C117.223 62.7268 117.223 61.5734 117.263 60.4367C117.302 59.5625 117.536 58.9277 117.962 58.5321C118.387 58.1366 118.974 57.9372 119.723 57.9372C120.221 57.9372 120.626 58.0169 120.933 58.1765C121.24 58.336 121.484 58.5222 121.662 58.7415C121.84 58.9609 121.975 59.167 122.068 59.3664C122.12 59.4595 122.183 59.5293 122.256 59.5758C122.328 59.6223 122.437 59.6456 122.579 59.6456H125.454C125.573 59.6456 125.675 59.6057 125.761 59.5259C125.847 59.4462 125.883 59.3465 125.87 59.2268C125.857 58.7515 125.715 58.2662 125.448 57.7776C125.177 57.289 124.785 56.837 124.267 56.4282C123.749 56.0193 123.11 55.6903 122.348 55.4476C121.586 55.205 120.715 55.082 119.729 55.082C118.509 55.082 117.447 55.2881 116.541 55.6969C115.634 56.1058 114.935 56.7007 114.433 57.4818C113.935 58.2629 113.658 59.2135 113.606 60.3403C113.592 60.9219 113.586 61.5335 113.586 62.175C113.586 62.8165 113.592 63.4214 113.606 63.9898C113.658 65.1398 113.932 66.117 114.423 66.9181C114.915 67.7191 115.611 68.3274 116.511 68.7428C117.411 69.1583 118.483 69.3677 119.729 69.3677C120.976 69.3677 122.071 69.1517 123.007 68.7229M131.245 69.1616C131.39 69.1616 131.509 69.1151 131.601 69.022C131.694 68.929 131.74 68.8093 131.74 68.6631V63.7206H136.604V68.6631C136.604 68.8093 136.65 68.929 136.742 69.022C136.835 69.1151 136.953 69.1616 137.099 69.1616H139.638C139.783 69.1616 139.902 69.1151 139.994 69.022C140.086 68.929 140.132 68.8093 140.132 68.6631V55.7634C140.132 55.6172 140.086 55.5008 139.994 55.4078C139.902 55.3147 139.783 55.2682 139.638 55.2682H137.099C136.953 55.2682 136.835 55.3147 136.742 55.4078C136.65 55.5008 136.604 55.6172 136.604 55.7634V60.5464H131.74V55.7634C131.74 55.6172 131.694 55.5008 131.601 55.4078C131.509 55.3147 131.39 55.2682 131.245 55.2682H128.706C128.561 55.2682 128.442 55.3147 128.353 55.4078C128.261 55.5008 128.215 55.6172 128.215 55.7634V68.6631C128.215 68.8093 128.261 68.929 128.353 69.022C128.445 69.1151 128.564 69.1616 128.706 69.1616H131.245ZM155.285 68.8426C156.179 68.4969 156.878 67.9983 157.383 67.3435C157.887 66.6887 158.141 65.9143 158.141 65.0135C158.141 64.2059 157.97 63.5344 157.63 62.9993C157.287 62.4642 156.75 62.0254 156.014 61.6897C155.279 61.3507 154.313 61.0715 153.119 60.8455C152.397 60.6859 151.829 60.5364 151.414 60.3901C151.002 60.2439 150.705 60.071 150.527 59.8749C150.349 59.6755 150.26 59.4462 150.26 59.1803C150.26 58.7581 150.421 58.4424 150.741 58.2363C151.061 58.0302 151.513 57.9272 152.09 57.9272C152.628 57.9272 153.063 58.0369 153.399 58.2563C153.732 58.4756 153.94 58.7282 154.019 59.0207C154.098 59.1404 154.191 59.2268 154.296 59.28C154.402 59.3332 154.527 59.3598 154.669 59.3598H157.267C157.386 59.3598 157.485 59.3165 157.564 59.2301C157.643 59.1437 157.683 59.0473 157.683 58.9443C157.67 58.5188 157.541 58.0867 157.3 57.6447C157.056 57.2026 156.7 56.7805 156.229 56.385C155.757 55.9894 155.177 55.6703 154.487 55.431C153.798 55.1917 153 55.0754 152.097 55.0754C150.979 55.0754 150.016 55.2549 149.201 55.6105C148.387 55.9695 147.753 56.4647 147.302 57.0996C146.847 57.7344 146.622 58.4557 146.622 59.2634C146.622 60.071 146.807 60.769 147.173 61.3175C147.539 61.8659 148.073 62.3113 148.779 62.647C149.481 62.986 150.332 63.2586 151.328 63.4713C152.103 63.6308 152.723 63.7871 153.188 63.9366C153.653 64.0895 153.993 64.2624 154.201 64.4518C154.412 64.6446 154.517 64.8839 154.517 65.1764C154.517 65.5852 154.323 65.911 153.937 66.1503C153.548 66.3896 152.974 66.5059 152.215 66.5059C151.757 66.5059 151.371 66.4494 151.064 66.3364C150.754 66.2234 150.504 66.0772 150.316 65.891C150.125 65.7049 149.976 65.5121 149.874 65.316C149.795 65.2096 149.706 65.1232 149.607 65.0567C149.508 64.9903 149.366 64.957 149.181 64.957H146.702C146.583 64.957 146.481 65.0002 146.395 65.0867C146.309 65.1731 146.266 65.2695 146.266 65.3725C146.293 66.0605 146.53 66.7087 146.975 67.3169C147.42 67.9252 148.08 68.4204 148.944 68.796C149.811 69.1716 150.9 69.3611 152.212 69.3611C153.366 69.3611 154.392 69.1882 155.282 68.8459M168.16 69.032C168.895 68.8126 169.538 68.4969 170.089 68.0814C170.64 67.6659 171.068 67.1607 171.378 66.5724C171.688 65.9841 171.847 65.3193 171.86 64.5781C171.873 64.4585 171.837 64.3587 171.751 64.279C171.665 64.1992 171.563 64.1593 171.444 64.1593H168.786C168.615 64.1593 168.48 64.1959 168.381 64.269C168.282 64.3421 168.206 64.4784 168.153 64.6745C167.982 65.3625 167.688 65.8378 167.266 66.1037C166.844 66.3696 166.333 66.4993 165.729 66.4993C165.007 66.4993 164.437 66.2965 164.018 65.8943C163.596 65.4922 163.368 64.8208 163.329 63.8801C163.289 62.7434 163.289 61.6299 163.329 60.5464C163.368 59.609 163.599 58.9376 164.018 58.5321C164.437 58.1299 165.01 57.9272 165.729 57.9272C166.333 57.9272 166.841 58.0568 167.256 58.3128C167.668 58.572 167.968 59.0506 168.15 59.752C168.216 59.9514 168.295 60.0877 168.387 60.1608C168.48 60.2339 168.612 60.2705 168.783 60.2705H171.441C171.56 60.2705 171.662 60.2306 171.748 60.1508C171.833 60.071 171.87 59.9713 171.857 59.855C171.843 59.1138 171.682 58.449 171.375 57.8607C171.068 57.2724 170.636 56.7705 170.086 56.3517C169.535 55.9362 168.892 55.6172 168.156 55.3978C167.421 55.1784 166.62 55.0721 165.756 55.0721C164.536 55.0721 163.477 55.2815 162.587 55.6969C161.693 56.1124 161 56.7207 160.499 57.5217C160.001 58.3227 159.724 59.2966 159.671 60.45C159.658 61.0183 159.652 61.6133 159.652 62.2348C159.652 62.8564 159.658 63.4381 159.671 63.9798C159.724 65.1565 159.995 66.1436 160.489 66.9347C160.981 67.7291 161.67 68.3307 162.557 68.7395C163.444 69.1483 164.509 69.3544 165.756 69.3544C166.623 69.3544 167.421 69.2447 168.156 69.0254M176.961 69.1616C177.106 69.1616 177.222 69.1151 177.314 69.022C177.407 68.929 177.453 68.8093 177.453 68.6631V63.7206H182.317V68.6631C182.317 68.8093 182.363 68.929 182.455 69.022C182.548 69.1151 182.666 69.1616 182.808 69.1616H185.347C185.493 69.1616 185.611 69.1151 185.704 69.022C185.796 68.929 185.842 68.8093 185.842 68.6631V55.7634C185.842 55.6172 185.796 55.5008 185.704 55.4078C185.611 55.3147 185.493 55.2682 185.347 55.2682H182.808C182.663 55.2682 182.544 55.3147 182.455 55.4078C182.363 55.5008 182.317 55.6172 182.317 55.7634V60.5464H177.453V55.7634C177.453 55.6172 177.407 55.5008 177.314 55.4078C177.222 55.3147 177.103 55.2682 176.961 55.2682H174.422C174.277 55.2682 174.158 55.3147 174.066 55.4078C173.974 55.5008 173.927 55.6172 173.927 55.7634V68.6631C173.927 68.8093 173.974 68.929 174.066 69.022C174.158 69.1151 174.277 69.1616 174.422 69.1616H176.961ZM197.378 68.7628C198.271 68.3673 198.967 67.769 199.465 66.9679C199.963 66.1669 200.24 65.1664 200.293 63.9632C200.319 63.3948 200.332 62.8265 200.332 62.2581C200.332 61.6897 200.319 61.1147 200.293 60.5331C200.253 59.3431 199.976 58.3393 199.465 57.525C198.954 56.7107 198.248 56.0991 197.348 55.6903C196.448 55.2781 195.409 55.0754 194.228 55.0754C193.048 55.0754 191.989 55.2815 191.099 55.6903C190.205 56.0991 189.506 56.7107 189.001 57.525C188.497 58.3393 188.216 59.3398 188.164 60.5331C188.151 61.1147 188.144 61.6897 188.144 62.2581C188.144 62.8265 188.151 63.3948 188.164 63.9632C188.216 65.1664 188.493 66.1702 188.991 66.9679C189.489 67.769 190.185 68.3673 191.079 68.7628C191.973 69.1583 193.021 69.3577 194.228 69.3577C195.435 69.3577 196.484 69.1583 197.378 68.7628ZM192.536 65.8678C192.104 65.4423 191.867 64.7676 191.827 63.8436C191.814 63.2619 191.808 62.7135 191.808 62.1983C191.808 61.6831 191.814 61.148 191.827 60.5929C191.854 59.9713 191.973 59.4661 192.184 59.0739C192.395 58.685 192.675 58.3959 193.031 58.2097C193.384 58.0236 193.786 57.9305 194.232 57.9305C194.677 57.9305 195.099 58.0236 195.452 58.2097C195.808 58.3959 196.085 58.6817 196.289 59.0739C196.494 59.4628 196.609 59.968 196.636 60.5929C196.662 61.148 196.675 61.6831 196.675 62.1983C196.675 62.7135 196.662 63.2652 196.636 63.8436C196.609 64.7709 196.375 65.4456 195.936 65.8678C195.498 66.2899 194.927 66.5026 194.235 66.5026C193.542 66.5026 192.975 66.2899 192.543 65.8678M211.396 68.7628C212.29 68.3673 212.982 67.769 213.484 66.9679C213.982 66.1669 214.259 65.1664 214.311 63.9632C214.338 63.3948 214.351 62.8265 214.351 62.2581C214.351 61.6897 214.338 61.1147 214.311 60.5331C214.272 59.3431 213.995 58.3393 213.484 57.525C212.972 56.7107 212.267 56.0991 211.366 55.6903C210.466 55.2781 209.427 55.0754 208.247 55.0754C207.066 55.0754 206.008 55.2815 205.117 55.6903C204.224 56.0991 203.525 56.7107 203.02 57.525C202.515 58.3393 202.235 59.3398 202.182 60.5331C202.169 61.1147 202.163 61.6897 202.163 62.2581C202.163 62.8265 202.169 63.3948 202.182 63.9632C202.235 65.1664 202.509 66.1702 203.01 66.9679C203.508 67.769 204.204 68.3673 205.098 68.7628C205.991 69.1583 207.04 69.3577 208.247 69.3577C209.454 69.3577 210.506 69.1583 211.396 68.7628ZM206.552 65.8678C206.12 65.4423 205.882 64.7676 205.843 63.8436C205.83 63.2619 205.823 62.7135 205.823 62.1983C205.823 61.6831 205.83 61.148 205.843 60.5929C205.869 59.9713 205.988 59.4661 206.196 59.0739C206.407 58.685 206.687 58.3959 207.043 58.2097C207.399 58.0236 207.798 57.9305 208.244 57.9305C208.689 57.9305 209.111 58.0236 209.464 58.2097C209.817 58.3959 210.097 58.6817 210.301 59.0739C210.506 59.4628 210.618 59.968 210.644 60.5929C210.671 61.148 210.684 61.6831 210.684 62.1983C210.684 62.7135 210.671 63.2652 210.644 63.8436C210.618 64.7709 210.387 65.4456 209.945 65.8678C209.507 66.2899 208.939 66.5026 208.244 66.5026C207.548 66.5026 206.984 66.2899 206.552 65.8678ZM226.163 69.1616C226.308 69.1616 226.43 69.1151 226.526 69.022C226.625 68.929 226.674 68.8093 226.674 68.6631V66.6788C226.674 66.5325 226.625 66.4095 226.526 66.3131C226.427 66.2134 226.305 66.1636 226.163 66.1636H220.218V55.7667C220.218 55.6205 220.168 55.5041 220.069 55.4111C219.97 55.318 219.855 55.2715 219.726 55.2715H217.128C216.982 55.2715 216.864 55.318 216.771 55.4111C216.679 55.5041 216.633 55.6205 216.633 55.7667V68.6664C216.633 68.8126 216.679 68.9323 216.771 69.0254C216.864 69.1184 216.982 69.165 217.128 69.165H226.163V69.1616Z" fill="#ED0000"/>
<path d="M101.869 48.5242C102.75 48.1353 103.432 47.5303 103.917 46.7193C104.402 45.905 104.646 44.8713 104.646 43.6149V35.5181C104.646 35.3719 104.596 35.2522 104.498 35.1592C104.399 35.0661 104.283 35.0196 104.155 35.0196H101.596C101.464 35.0196 101.351 35.0661 101.253 35.1592C101.154 35.2522 101.104 35.3719 101.104 35.5181V43.595C101.104 44.4558 100.896 45.1006 100.484 45.5294C100.072 45.9582 99.4982 46.1742 98.7628 46.1742C98.0274 46.1742 97.4338 45.9582 97.0216 45.5294C96.6094 45.1006 96.4016 44.4558 96.4016 43.595V35.5181C96.4016 35.3719 96.3554 35.2522 96.2631 35.1592C96.1708 35.0661 96.0521 35.0196 95.907 35.0196H93.3677C93.2226 35.0196 93.1039 35.0661 93.0115 35.1592C92.9192 35.2522 92.873 35.3719 92.873 35.5181V43.6149C92.873 44.8713 93.1171 45.9083 93.6018 46.7193C94.0866 47.5337 94.7725 48.1353 95.6596 48.5242C96.5467 48.913 97.5789 49.1091 98.7595 49.1091C99.9401 49.1091 100.992 48.913 101.869 48.5242ZM110.12 48.913C110.265 48.913 110.384 48.8665 110.476 48.7734C110.569 48.6804 110.615 48.5607 110.615 48.4145V41.1919L115.42 48.5341C115.446 48.574 115.509 48.6471 115.608 48.7535C115.706 48.8599 115.858 48.913 116.069 48.913H118.176C118.322 48.913 118.437 48.8632 118.529 48.7635C118.622 48.6638 118.668 48.5474 118.668 48.4178V35.5181C118.668 35.3719 118.622 35.2522 118.529 35.1592C118.437 35.0661 118.318 35.0196 118.176 35.0196H115.815C115.67 35.0196 115.551 35.0661 115.459 35.1592C115.367 35.2522 115.321 35.3719 115.321 35.5181V43.0399L110.516 35.4018C110.489 35.3486 110.427 35.2722 110.328 35.1724C110.229 35.0727 110.067 35.0229 109.846 35.0229H107.759C107.614 35.0229 107.495 35.0694 107.403 35.1625C107.31 35.2555 107.264 35.3752 107.264 35.5214V48.4211C107.264 48.5674 107.31 48.687 107.403 48.7801C107.495 48.8732 107.614 48.9197 107.759 48.9197H110.12V48.913ZM124.551 48.913C124.696 48.913 124.811 48.8665 124.904 48.7734C124.996 48.6804 125.042 48.5607 125.042 48.4145V35.5148C125.042 35.3686 124.996 35.2489 124.904 35.1558C124.811 35.0628 124.693 35.0162 124.551 35.0162H121.913C121.768 35.0162 121.649 35.0628 121.557 35.1558C121.464 35.2489 121.418 35.3686 121.418 35.5148V48.4145C121.418 48.5607 121.464 48.6804 121.557 48.7734C121.649 48.8665 121.768 48.913 121.913 48.913H124.551ZM134.751 48.913C134.988 48.913 135.166 48.8532 135.292 48.7336C135.417 48.6139 135.506 48.4743 135.559 48.3181L139.575 35.6178C139.602 35.5514 139.615 35.4915 139.615 35.4384C139.615 35.332 139.572 35.2356 139.486 35.1492C139.401 35.0628 139.298 35.0196 139.18 35.0196H136.739C136.528 35.0196 136.37 35.0794 136.258 35.199C136.146 35.3187 136.07 35.4317 136.03 35.5381L133.234 44.7051L130.457 35.5381C130.431 35.4317 130.358 35.3187 130.239 35.199C130.121 35.0794 129.956 35.0196 129.748 35.0196H127.308C127.189 35.0196 127.087 35.0628 127.001 35.1492C126.915 35.2356 126.873 35.332 126.873 35.4384C126.873 35.4915 126.886 35.5514 126.912 35.6178L130.929 48.3181C130.981 48.4776 131.074 48.6139 131.202 48.7336C131.334 48.8532 131.509 48.913 131.733 48.913H134.751ZM151.289 48.913C151.434 48.913 151.553 48.8665 151.645 48.7734C151.737 48.6804 151.783 48.5607 151.783 48.4145V46.5498C151.783 46.4036 151.737 46.2872 151.645 46.1942C151.553 46.1011 151.434 46.0546 151.289 46.0546H144.852V43.2958H150.698C150.844 43.2958 150.962 43.246 151.055 43.1462C151.147 43.0465 151.193 42.9302 151.193 42.8006V41.0755C151.193 40.9293 151.147 40.8063 151.055 40.7099C150.962 40.6102 150.844 40.5603 150.698 40.5603H144.852V37.8813H151.131C151.276 37.8813 151.394 37.8348 151.487 37.7417C151.576 37.6487 151.625 37.529 151.625 37.3828V35.5181C151.625 35.3719 151.579 35.2522 151.487 35.1592C151.394 35.0661 151.276 35.0196 151.131 35.0196H141.936C141.791 35.0196 141.673 35.0661 141.584 35.1592C141.491 35.2522 141.445 35.3719 141.445 35.5181V48.4178C141.445 48.564 141.491 48.6837 141.584 48.7768C141.676 48.8698 141.795 48.9164 141.936 48.9164H151.289V48.913ZM157.057 48.913C157.202 48.913 157.32 48.8665 157.413 48.7734C157.505 48.6804 157.551 48.5607 157.551 48.4145V44.0071H159.579L161.822 48.3713C161.874 48.4776 161.96 48.594 162.079 48.7203C162.198 48.8466 162.379 48.9097 162.63 48.9097H165.228C165.347 48.9097 165.446 48.8665 165.532 48.7801C165.617 48.6937 165.66 48.5973 165.66 48.4909C165.66 48.4244 165.64 48.3513 165.601 48.2715L162.884 43.3889C163.619 43.0565 164.213 42.5679 164.664 41.9198C165.116 41.2716 165.344 40.4772 165.344 39.5399C165.344 38.0974 164.856 36.9839 163.876 36.1962C162.897 35.4084 161.561 35.0162 159.869 35.0162H154.514C154.369 35.0162 154.25 35.0628 154.161 35.1558C154.069 35.2489 154.023 35.3686 154.023 35.5148V48.4145C154.023 48.5607 154.069 48.6804 154.161 48.7734C154.253 48.8665 154.372 48.913 154.514 48.913H157.057ZM157.548 37.7783H159.833C160.476 37.7783 160.945 37.9378 161.241 38.2536C161.535 38.5727 161.683 38.9882 161.683 39.5034C161.683 40.0185 161.528 40.4473 161.222 40.7531C160.915 41.0556 160.45 41.2085 159.833 41.2085H157.548V37.775V37.7783ZM175.84 48.594C176.734 48.2483 177.433 47.7497 177.938 47.0949C178.442 46.4401 178.696 45.6624 178.696 44.7649C178.696 43.9573 178.525 43.2858 178.185 42.7507C177.842 42.2156 177.305 41.7802 176.569 41.4411C175.834 41.1021 174.871 40.8229 173.674 40.5969C172.952 40.4373 172.384 40.2878 171.972 40.1415C171.56 39.9953 171.263 39.8258 171.085 39.6263C170.907 39.4269 170.818 39.1976 170.818 38.9317C170.818 38.5095 170.98 38.1938 171.303 37.9877C171.623 37.7816 172.074 37.6786 172.651 37.6786C173.189 37.6786 173.628 37.7883 173.961 38.0043C174.297 38.2237 174.501 38.4763 174.581 38.7688C174.66 38.8885 174.752 38.9749 174.858 39.0281C174.963 39.0812 175.088 39.1078 175.23 39.1078H177.829C177.948 39.1078 178.047 39.0646 178.122 38.9782C178.202 38.8918 178.241 38.7954 178.241 38.689C178.228 38.2669 178.099 37.8315 177.859 37.3894C177.615 36.9474 177.258 36.5252 176.787 36.1297C176.315 35.7308 175.735 35.4151 175.046 35.1758C174.356 34.9365 173.558 34.8168 172.655 34.8168C171.54 34.8168 170.574 34.9963 169.759 35.3519C168.945 35.7109 168.312 36.2062 167.86 36.841C167.408 37.4758 167.181 38.1971 167.181 39.0048C167.181 39.8125 167.362 40.5105 167.731 41.0589C168.097 41.6073 168.635 42.0527 169.337 42.3884C170.04 42.7274 170.89 43 171.886 43.2127C172.661 43.3723 173.281 43.5285 173.746 43.6781C174.211 43.8309 174.551 44.0038 174.759 44.1932C174.97 44.386 175.075 44.6287 175.075 44.9178C175.075 45.3267 174.881 45.6524 174.495 45.8917C174.109 46.131 173.532 46.2507 172.773 46.2507C172.315 46.2507 171.929 46.1942 171.623 46.0812C171.316 45.9682 171.065 45.8186 170.874 45.6324C170.683 45.4496 170.538 45.2569 170.432 45.0574C170.353 44.9511 170.264 44.8646 170.165 44.8015C170.066 44.735 169.924 44.7018 169.743 44.7018H167.263C167.144 44.7018 167.042 44.745 166.956 44.8314C166.871 44.9178 166.828 45.0142 166.828 45.1206C166.854 45.8086 167.091 46.4568 167.537 47.065C167.982 47.6733 168.638 48.1652 169.505 48.5441C170.373 48.9197 171.461 49.1091 172.773 49.1091C173.928 49.1091 174.953 48.9363 175.844 48.594M183.794 48.913C183.939 48.913 184.055 48.8665 184.147 48.7734C184.24 48.6804 184.286 48.5607 184.286 48.4145V35.5148C184.286 35.3686 184.24 35.2489 184.147 35.1558C184.055 35.0628 183.936 35.0162 183.794 35.0162H181.156C181.011 35.0162 180.892 35.0628 180.8 35.1558C180.708 35.2489 180.662 35.3686 180.662 35.5148V48.4145C180.662 48.5607 180.708 48.6804 180.8 48.7734C180.892 48.8665 181.008 48.913 181.156 48.913H183.794ZM193.163 48.913C193.308 48.913 193.427 48.8665 193.519 48.7734C193.612 48.6804 193.658 48.5607 193.658 48.4145V38.134H197.163C197.308 38.134 197.427 38.0841 197.52 37.9844C197.612 37.8847 197.658 37.7683 197.658 37.6354V35.5115C197.658 35.3652 197.612 35.2456 197.52 35.1525C197.427 35.0594 197.308 35.0129 197.163 35.0129H186.571C186.426 35.0129 186.307 35.0594 186.215 35.1525C186.123 35.2456 186.076 35.3652 186.076 35.5115V37.6354C186.076 37.7683 186.123 37.8847 186.215 37.9844C186.307 38.0841 186.426 38.134 186.571 38.134H190.077V48.4145C190.077 48.5607 190.123 48.6804 190.215 48.7734C190.307 48.8665 190.426 48.913 190.571 48.913H193.17H193.163ZM206.041 48.913C206.186 48.913 206.301 48.8665 206.394 48.7734C206.486 48.6804 206.532 48.5607 206.532 48.4145V44.1467L211.119 35.6511C211.133 35.6112 211.142 35.5746 211.149 35.5414C211.156 35.5082 211.159 35.4716 211.159 35.4317C211.159 35.3253 211.119 35.229 211.04 35.1425C210.961 35.0561 210.862 35.0129 210.743 35.0129H208.283C208.085 35.0129 207.93 35.0628 207.822 35.1625C207.709 35.2622 207.634 35.3519 207.597 35.4317L204.761 40.5504L201.925 35.4317C201.899 35.3519 201.83 35.2622 201.718 35.1625C201.605 35.0628 201.45 35.0129 201.256 35.0129H198.796C198.677 35.0129 198.575 35.0561 198.489 35.1425C198.403 35.229 198.36 35.3253 198.36 35.4317C198.36 35.4716 198.367 35.5082 198.38 35.5414C198.393 35.5746 198.407 35.6112 198.42 35.6511L202.987 44.1467V48.4145C202.987 48.5607 203.037 48.6804 203.136 48.7734C203.234 48.8665 203.347 48.913 203.479 48.913H206.041Z" fill="#ED0000"/>
<path d="M101.199 28.3454C102.093 27.9997 102.792 27.5011 103.296 26.8463C103.801 26.1915 104.055 25.4138 104.055 24.513C104.055 23.7053 103.883 23.0339 103.544 22.4988C103.201 21.9637 102.663 21.5282 101.931 21.1892C101.199 20.8502 100.233 20.571 99.0356 20.345C98.3134 20.1854 97.7462 20.0359 97.334 19.8896C96.9218 19.7434 96.625 19.5739 96.4469 19.3744C96.2689 19.175 96.1798 18.9457 96.1798 18.6797C96.1798 18.2576 96.3414 17.9419 96.6613 17.7358C96.9812 17.5297 97.433 17.4267 98.0101 17.4267C98.5476 17.4267 98.9862 17.5364 99.3192 17.7557C99.6556 17.9751 99.8601 18.2277 99.9392 18.5202C100.018 18.6399 100.111 18.7263 100.216 18.7795C100.322 18.8326 100.447 18.8592 100.589 18.8592H103.187C103.306 18.8592 103.405 18.816 103.481 18.7296C103.56 18.6432 103.6 18.5468 103.6 18.4404C103.586 18.0183 103.458 17.5829 103.217 17.1408C102.973 16.6988 102.617 16.2766 102.142 15.8811C101.671 15.4856 101.09 15.1665 100.401 14.9272C99.7117 14.6879 98.9136 14.5715 98.0101 14.5715C96.8954 14.5715 95.9292 14.751 95.1147 15.1067C94.3001 15.4656 93.667 15.9609 93.2152 16.5957C92.7634 17.2306 92.5358 17.9518 92.5358 18.7595C92.5358 19.5672 92.7205 20.2652 93.0866 20.8136C93.4526 21.3621 93.9901 21.8074 94.6925 22.1432C95.395 22.4822 96.2458 22.7547 97.2417 22.9675C98.0167 23.127 98.6366 23.2832 99.1016 23.4328C99.5666 23.5857 99.9062 23.7552 100.114 23.948C100.325 24.1408 100.427 24.3801 100.427 24.6726C100.427 25.0847 100.233 25.4071 99.8469 25.6464C99.4611 25.8857 98.8839 26.0021 98.1255 26.0021C97.6671 26.0021 97.2813 25.9456 96.9746 25.8326C96.6679 25.7196 96.4173 25.57 96.226 25.3872C96.0347 25.201 95.8896 25.0083 95.7841 24.8122C95.7049 24.7058 95.6159 24.6194 95.517 24.5529C95.418 24.4864 95.2762 24.4532 95.0949 24.4532H92.615C92.4963 24.4532 92.394 24.4964 92.3083 24.5828C92.2226 24.6692 92.1797 24.7656 92.1797 24.872C92.2061 25.56 92.4435 26.2082 92.8887 26.8164C93.3339 27.4247 93.9901 27.9166 94.8574 28.2955C95.7247 28.6744 96.813 28.8605 98.1255 28.8605C99.2797 28.8605 100.305 28.6877 101.196 28.3454M107.442 28.6611C107.666 28.6611 107.821 28.6113 107.913 28.5115C108.005 28.4118 108.065 28.3221 108.091 28.2423L108.84 26.2181H114.096L114.865 28.2423C114.891 28.3221 114.954 28.4118 115.053 28.5115C115.152 28.6113 115.3 28.6611 115.498 28.6611H117.918C118.037 28.6611 118.139 28.6179 118.225 28.5315C118.311 28.4451 118.354 28.3487 118.354 28.2423C118.354 28.1758 118.34 28.116 118.314 28.0628L113.707 15.3227C113.668 15.1765 113.585 15.0468 113.463 14.9372C113.338 14.8241 113.163 14.7676 112.942 14.7676H110.027C109.803 14.7676 109.631 14.8241 109.506 14.9372C109.381 15.0502 109.298 15.1798 109.262 15.3227L104.635 28.0628C104.622 28.116 104.615 28.1758 104.615 28.2423C104.615 28.3487 104.658 28.4451 104.744 28.5315C104.83 28.6179 104.925 28.6611 105.031 28.6611H107.455H107.442ZM111.458 18.1247L113.308 23.363H109.648L111.458 18.1247ZM122.759 28.6611C122.905 28.6611 123.02 28.6146 123.112 28.5215C123.205 28.4285 123.251 28.3088 123.251 28.1626V20.9399L128.056 28.2822C128.082 28.3221 128.145 28.3952 128.244 28.5016C128.342 28.6079 128.497 28.6611 128.705 28.6611H130.812C130.958 28.6611 131.076 28.6113 131.169 28.5115C131.261 28.4118 131.307 28.2988 131.307 28.1659V15.2662C131.307 15.12 131.261 15.0036 131.169 14.9106C131.076 14.8175 130.958 14.771 130.812 14.771H128.451C128.306 14.771 128.187 14.8175 128.095 14.9106C128.003 15.0036 127.957 15.1233 127.957 15.2662V22.788L123.152 15.1499C123.125 15.0967 123.063 15.0202 122.964 14.9205C122.865 14.8208 122.703 14.771 122.482 14.771H120.395C120.25 14.771 120.131 14.8175 120.042 14.9106C119.95 15.0036 119.904 15.1233 119.904 15.2662V28.1659C119.904 28.3121 119.95 28.4318 120.042 28.5248C120.134 28.6179 120.253 28.6644 120.395 28.6644H122.759V28.6611ZM141.227 28.6611C141.372 28.6611 141.49 28.6146 141.583 28.5215C141.675 28.4285 141.721 28.3088 141.721 28.1626V23.6787H147.39C147.535 23.6787 147.657 23.6289 147.756 23.5292C147.855 23.4295 147.905 23.3131 147.905 23.1802V21.1959C147.905 21.0496 147.855 20.9266 147.756 20.8269C147.657 20.7272 147.535 20.6774 147.39 20.6774H141.721V17.7591H147.786C147.931 17.7591 148.053 17.7125 148.152 17.6195C148.251 17.5264 148.3 17.4067 148.3 17.2605V15.2562C148.3 15.11 148.251 14.9937 148.152 14.9006C148.053 14.8075 147.931 14.761 147.786 14.761H138.75C138.605 14.761 138.486 14.8075 138.397 14.9006C138.305 14.9937 138.259 15.1133 138.259 15.2562V28.1559C138.259 28.3022 138.305 28.4218 138.397 28.5149C138.49 28.6079 138.608 28.6545 138.75 28.6545H141.23L141.227 28.6611ZM153.435 28.6611C153.58 28.6611 153.695 28.6146 153.788 28.5215C153.88 28.4285 153.926 28.3088 153.926 28.1626V23.7585H155.954L158.2 28.1227C158.253 28.229 158.339 28.3454 158.454 28.4683C158.573 28.5946 158.757 28.6578 159.005 28.6578H161.603C161.722 28.6578 161.824 28.6146 161.91 28.5282C161.996 28.4418 162.039 28.3454 162.039 28.239C162.039 28.1725 162.019 28.0994 161.979 28.0196L159.262 23.137C159.997 22.8046 160.591 22.316 161.043 21.6678C161.498 21.0197 161.722 20.2253 161.722 19.288C161.722 17.8455 161.234 16.732 160.254 15.9443C159.275 15.1565 157.943 14.7643 156.248 14.7643H150.892C150.747 14.7643 150.628 14.8108 150.536 14.9039C150.444 14.997 150.398 15.1166 150.398 15.2596V28.1592C150.398 28.3055 150.444 28.4251 150.536 28.5182C150.628 28.6113 150.747 28.6578 150.892 28.6578H153.432L153.435 28.6611ZM153.926 17.5297H156.208C156.851 17.5297 157.319 17.6893 157.616 18.005C157.913 18.3208 158.058 18.7396 158.058 19.2548C158.058 19.77 157.903 20.202 157.596 20.5045C157.29 20.807 156.825 20.9599 156.208 20.9599H153.926V17.5264V17.5297ZM165.64 28.6611C165.864 28.6611 166.019 28.6113 166.111 28.5115C166.204 28.4118 166.263 28.3221 166.289 28.2423L167.038 26.2181H172.294L173.063 28.2423C173.089 28.3221 173.152 28.4118 173.251 28.5115C173.35 28.6113 173.498 28.6611 173.693 28.6611H176.113C176.232 28.6611 176.331 28.6179 176.417 28.5315C176.502 28.4451 176.545 28.3487 176.545 28.2423C176.545 28.1758 176.532 28.116 176.506 28.0628L171.899 15.3227C171.859 15.1765 171.777 15.0468 171.655 14.9372C171.529 14.8241 171.355 14.7676 171.134 14.7676H168.222C167.998 14.7676 167.826 14.8241 167.701 14.9372C167.575 15.0502 167.493 15.1798 167.453 15.3227L162.827 28.0628C162.814 28.116 162.807 28.1758 162.807 28.2423C162.807 28.3487 162.85 28.4451 162.936 28.5315C163.021 28.6179 163.117 28.6611 163.219 28.6611H165.643H165.64ZM169.656 18.1247L171.506 23.363H167.846L169.656 18.1247ZM180.958 28.6611C181.103 28.6611 181.221 28.6146 181.314 28.5215C181.406 28.4285 181.452 28.3088 181.452 28.1626V20.9399L186.257 28.2822C186.283 28.3221 186.346 28.3952 186.445 28.5016C186.544 28.6079 186.699 28.6611 186.907 28.6611H189.014C189.159 28.6611 189.278 28.6113 189.37 28.5115C189.459 28.4118 189.509 28.2988 189.509 28.1659V15.2662C189.509 15.12 189.462 15.0036 189.37 14.9106C189.278 14.8175 189.159 14.771 189.014 14.771H186.653C186.508 14.771 186.389 14.8175 186.297 14.9106C186.204 15.0036 186.158 15.1233 186.158 15.2662V22.788L181.353 15.1499C181.327 15.0967 181.264 15.0202 181.165 14.9205C181.066 14.8208 180.908 14.771 180.684 14.771H178.596C178.451 14.771 178.333 14.8175 178.24 14.9106C178.148 15.0036 178.102 15.1233 178.102 15.2662V28.1659C178.102 28.3121 178.148 28.4318 178.24 28.5248C178.333 28.6179 178.451 28.6644 178.596 28.6644H180.958V28.6611ZM200.312 28.5348C201.047 28.3154 201.69 27.9997 202.241 27.5842C202.792 27.1687 203.224 26.6635 203.53 26.0752C203.837 25.4869 203.999 24.8221 204.015 24.0809C204.028 23.9613 203.992 23.8616 203.906 23.7818C203.821 23.702 203.718 23.6621 203.6 23.6621H200.942C200.77 23.6621 200.635 23.6987 200.539 23.7718C200.44 23.8449 200.365 23.9812 200.312 24.1773C200.14 24.8653 199.847 25.3406 199.425 25.6065C199.006 25.8725 198.492 26.0021 197.888 26.0021C197.166 26.0021 196.595 25.8027 196.177 25.3972C195.758 24.995 195.527 24.3236 195.487 23.3829C195.448 22.2462 195.448 21.1327 195.487 20.0492C195.527 19.1118 195.754 18.4404 196.177 18.0349C196.599 17.6328 197.169 17.43 197.888 17.43C198.492 17.43 198.999 17.5596 199.415 17.8156C199.83 18.0715 200.127 18.5534 200.312 19.2548C200.378 19.4542 200.457 19.5905 200.549 19.6636C200.642 19.7367 200.774 19.7733 200.942 19.7733H203.6C203.718 19.7733 203.817 19.7334 203.906 19.6536C203.992 19.5739 204.028 19.4741 204.015 19.3578C204.002 18.6166 203.84 17.9518 203.53 17.3635C203.22 16.7752 202.792 16.2733 202.241 15.8545C201.69 15.439 201.047 15.12 200.312 14.9006C199.576 14.6812 198.775 14.5749 197.911 14.5749C196.691 14.5749 195.632 14.7843 194.742 15.1997C193.848 15.6152 193.153 16.2235 192.655 17.0245C192.157 17.8255 191.88 18.7994 191.827 19.9528C191.814 20.5211 191.807 21.1161 191.807 21.7376C191.807 22.3592 191.814 22.9409 191.827 23.4826C191.88 24.6593 192.153 25.6464 192.645 26.4408C193.136 27.2352 193.825 27.8368 194.712 28.2456C195.599 28.6545 196.665 28.8605 197.911 28.8605C198.778 28.8605 199.58 28.7509 200.312 28.5315M209.209 28.6611C209.354 28.6611 209.473 28.6146 209.565 28.5215C209.658 28.4285 209.704 28.3088 209.704 28.1626V15.2629C209.704 15.1166 209.658 15.0003 209.565 14.9072C209.473 14.8142 209.354 14.7676 209.209 14.7676H206.571C206.426 14.7676 206.307 14.8142 206.218 14.9072C206.126 15.0003 206.08 15.12 206.08 15.2629V28.1626C206.08 28.3088 206.126 28.4285 206.218 28.5215C206.307 28.6146 206.426 28.6611 206.571 28.6611H209.209ZM220.669 28.3454C221.562 27.9997 222.261 27.5011 222.766 26.8463C223.271 26.1915 223.525 25.4138 223.525 24.513C223.525 23.7053 223.353 23.0339 223.013 22.4988C222.67 21.9637 222.133 21.5282 221.401 21.1892C220.665 20.8502 219.702 20.571 218.505 20.345C217.783 20.1854 217.216 20.0359 216.804 19.8896C216.392 19.7434 216.095 19.5739 215.917 19.3744C215.739 19.175 215.65 18.9457 215.65 18.6797C215.65 18.2576 215.811 17.9419 216.131 17.7358C216.451 17.5297 216.903 17.4267 217.48 17.4267C218.017 17.4267 218.456 17.5364 218.789 17.7557C219.122 17.9751 219.33 18.2277 219.409 18.5202C219.488 18.6399 219.58 18.7263 219.686 18.7795C219.791 18.8326 219.917 18.8592 220.059 18.8592H222.657C222.776 18.8592 222.875 18.816 222.951 18.7296C223.03 18.6432 223.069 18.5468 223.069 18.4404C223.056 18.0183 222.928 17.5829 222.687 17.1408C222.443 16.6988 222.087 16.2766 221.612 15.8811C221.14 15.4856 220.56 15.1665 219.871 14.9272C219.181 14.6879 218.383 14.5715 217.48 14.5715C216.362 14.5715 215.399 14.751 214.584 15.1067C213.77 15.4656 213.137 15.9609 212.685 16.5957C212.233 17.2306 212.006 17.9518 212.006 18.7595C212.006 19.5672 212.187 20.2652 212.556 20.8136C212.922 21.3621 213.46 21.8074 214.162 22.1432C214.865 22.4822 215.716 22.7547 216.711 22.9675C217.486 23.127 218.106 23.2832 218.571 23.4328C219.036 23.5857 219.376 23.7552 219.587 23.948C219.795 24.1408 219.9 24.3801 219.9 24.6726C219.9 25.0847 219.706 25.4071 219.32 25.6464C218.934 25.8857 218.357 26.0021 217.599 26.0021C217.14 26.0021 216.754 25.9456 216.448 25.8326C216.141 25.7196 215.89 25.57 215.699 25.3872C215.508 25.201 215.363 25.0083 215.257 24.8122C215.178 24.7058 215.089 24.6194 214.99 24.5529C214.891 24.4864 214.749 24.4532 214.568 24.4532H212.088C211.969 24.4532 211.867 24.4964 211.781 24.5828C211.696 24.6692 211.653 24.7656 211.653 24.872C211.679 25.56 211.917 26.2082 212.362 26.8164C212.807 27.4247 213.466 27.9166 214.33 28.2955C215.198 28.6744 216.286 28.8605 217.599 28.8605C218.753 28.8605 219.778 28.6877 220.669 28.3454ZM233.546 28.5348C234.282 28.3154 234.925 27.9997 235.475 27.5842C236.026 27.1687 236.455 26.6635 236.765 26.0752C237.072 25.4869 237.233 24.8221 237.246 24.0809C237.259 23.9613 237.223 23.8616 237.137 23.7818C237.052 23.702 236.95 23.6621 236.831 23.6621H234.173C234.001 23.6621 233.866 23.6987 233.767 23.7718C233.668 23.8449 233.592 23.9812 233.543 24.1773C233.371 24.8653 233.075 25.3406 232.656 25.6065C232.234 25.8725 231.726 26.0021 231.119 26.0021C230.397 26.0021 229.826 25.8027 229.408 25.3972C228.986 24.995 228.758 24.3236 228.718 23.3829C228.679 22.2462 228.679 21.1327 228.718 20.0492C228.758 19.1118 228.989 18.4404 229.408 18.0349C229.826 17.6328 230.4 17.43 231.119 17.43C231.723 17.43 232.23 17.5596 232.646 17.8156C233.058 18.0748 233.358 18.5534 233.543 19.2548C233.609 19.4542 233.688 19.5905 233.78 19.6636C233.873 19.7367 234.005 19.7733 234.173 19.7733H236.831C236.95 19.7733 237.052 19.7334 237.137 19.6536C237.223 19.5739 237.259 19.4741 237.246 19.3578C237.233 18.6166 237.072 17.9518 236.765 17.3635C236.455 16.7752 236.026 16.2733 235.475 15.8545C234.925 15.439 234.282 15.12 233.546 14.9006C232.811 14.6812 232.01 14.5749 231.142 14.5749C229.922 14.5749 228.867 14.7843 227.973 15.1997C227.079 15.6152 226.384 16.2235 225.886 17.0245C225.388 17.8255 225.111 18.7994 225.058 19.9528C225.045 20.5211 225.038 21.1161 225.038 21.7376C225.038 22.3592 225.045 22.9409 225.058 23.4826C225.111 24.6593 225.384 25.6464 225.876 26.4408C226.367 27.2352 227.056 27.8368 227.943 28.2456C228.831 28.6545 229.896 28.8605 231.142 28.8605C232.01 28.8605 232.808 28.7509 233.546 28.5315M248.096 28.2656C248.986 27.8701 249.682 27.2718 250.183 26.4707C250.681 25.6697 250.958 24.6692 251.011 23.466C251.037 22.8977 251.051 22.3293 251.051 21.7609C251.051 21.1925 251.037 20.6175 251.011 20.0359C250.971 18.8459 250.698 17.8422 250.183 17.0311C249.672 16.2168 248.966 15.6052 248.066 15.1964C247.166 14.7876 246.127 14.5815 244.943 14.5815C243.759 14.5815 242.707 14.7876 241.814 15.1964C240.92 15.6052 240.221 16.2168 239.716 17.0311C239.212 17.8455 238.931 18.8459 238.879 20.0359C238.866 20.6175 238.859 21.1925 238.859 21.7609C238.859 22.3293 238.866 22.8977 238.879 23.466C238.931 24.6692 239.208 25.673 239.706 26.4707C240.204 27.2718 240.9 27.8701 241.794 28.2656C242.688 28.6611 243.736 28.8605 244.943 28.8605C246.15 28.8605 247.202 28.6611 248.093 28.2656M243.251 25.3672C242.819 24.9451 242.582 24.2704 242.542 23.343C242.529 22.7614 242.523 22.2096 242.523 21.6944C242.523 21.1792 242.529 20.6408 242.542 20.0857C242.569 19.4642 242.688 18.9589 242.895 18.5667C243.106 18.1779 243.387 17.8887 243.743 17.7026C244.099 17.5164 244.498 17.4234 244.943 17.4234C245.388 17.4234 245.811 17.5164 246.163 17.7026C246.52 17.8887 246.797 18.1745 247.001 18.5667C247.205 18.9556 247.318 19.4642 247.344 20.0857C247.37 20.6408 247.383 21.1759 247.383 21.6944C247.383 22.2129 247.37 22.7581 247.344 23.343C247.318 24.2671 247.087 24.9418 246.645 25.3672C246.206 25.7894 245.639 26.0021 244.94 26.0021C244.241 26.0021 243.68 25.7894 243.248 25.3672" fill="#ED0000"/>
<path d="M46.9814 0V64.0895C46.6549 70.1754 43.7958 75.5666 39.4296 79.3158C35.0634 75.5666 32.2043 70.1754 31.8779 64.0895V0H30.595V64.136C30.9347 70.5078 33.8961 76.1616 38.4304 80.1235C37.8039 80.6021 37.1542 81.0442 36.4749 81.4564C30.473 77.8068 26.3641 71.455 25.9683 64.0862V0H24.6855V64.136C25.0879 71.701 29.1869 78.2522 35.2283 82.161C34.6743 82.4502 34.1038 82.7194 33.5234 82.9654C25.9453 79.7745 20.5172 72.6117 20.0621 64.0862V0H18.7793V64.136C19.2344 72.7181 24.4514 79.9972 31.8581 83.5936C31.436 83.7332 31.004 83.8628 30.5687 83.9791C21.4801 81.5561 14.6671 73.6853 14.1526 64.0895V0H12.8698V64.136C13.3645 73.5125 19.5477 81.3334 28.0624 84.4976C27.9173 84.5209 27.7689 84.5408 27.6205 84.5575C17.0876 83.2047 8.81361 74.6991 8.2431 64.0862V0H6.96029V64.136C7.46484 73.672 13.8525 81.6026 22.5915 84.6539C11.6431 83.6733 2.92059 74.9949 2.33359 64.0862V0H1.05078V64.136C1.70043 76.3975 12.0718 86 24.6657 86H54.2199C66.8106 86 77.1852 76.3942 77.8316 64.136V0H46.9814Z" fill="#ED0000"/>
</svg>
