<svg width="252" height="87" viewBox="0 0 252 87" fill="none" xmlns="http://www.w3.org/2000/svg">
<path d="M96.0222 69.1616C96.1673 69.1616 96.286 69.1151 96.3783 69.022C96.4707 68.929 96.5168 68.8093 96.5168 68.6631V63.7206H101.381V68.6631C101.381 68.8093 101.427 68.929 101.519 69.022C101.612 69.1151 101.731 69.1616 101.876 69.1616H104.415C104.56 69.1616 104.675 69.1151 104.768 69.022C104.86 68.929 104.906 68.8093 104.906 68.6631V55.7634C104.906 55.6172 104.86 55.5008 104.768 55.4078C104.675 55.3147 104.557 55.2682 104.415 55.2682H101.876C101.731 55.2682 101.612 55.3147 101.519 55.4078C101.427 55.5008 101.381 55.6172 101.381 55.7634V60.5464H96.5168V55.7634C96.5168 55.6172 96.4707 55.5008 96.3783 55.4078C96.286 55.3147 96.1673 55.2682 96.0222 55.2682H93.4829C93.3378 55.2682 93.2191 55.3147 93.1268 55.4078C93.0344 55.5008 92.9883 55.6172 92.9883 55.7634V68.6631C92.9883 68.8093 93.0344 68.929 93.1268 69.022C93.2191 69.1151 93.3378 69.1616 93.4829 69.1616H96.0222ZM110.789 69.1616C110.934 69.1616 111.05 69.1151 111.142 69.022C111.235 68.929 111.281 68.8093 111.281 68.6631V55.7634C111.281 55.6172 111.235 55.5008 111.142 55.4078C111.05 55.3147 110.931 55.2682 110.789 55.2682H108.151C108.006 55.2682 107.887 55.3147 107.795 55.4078C107.703 55.5008 107.657 55.6172 107.657 55.7634V68.6631C107.657 68.8093 107.703 68.929 107.795 69.022C107.887 69.1151 108.006 69.1616 108.151 69.1616H110.789ZM123.004 68.7163C123.941 68.2875 124.666 67.6659 125.181 66.8616C125.692 66.0539 125.949 65.0833 125.949 63.9433V61.6831C125.949 61.5368 125.903 61.4139 125.81 61.3141C125.718 61.2144 125.599 61.1646 125.454 61.1646H120.495C120.349 61.1646 120.227 61.2144 120.132 61.3141C120.033 61.4139 119.983 61.5335 119.983 61.6831V63.1522C119.983 63.2985 120.033 63.4214 120.132 63.5212C120.231 63.6209 120.349 63.6707 120.495 63.6707H122.345V64.0463C122.345 64.6147 122.232 65.08 122.011 65.4456C121.787 65.8079 121.484 66.0772 121.095 66.25C120.709 66.4228 120.264 66.5092 119.766 66.5092C119.03 66.5092 118.44 66.3032 117.992 65.8943C117.546 65.4855 117.302 64.8174 117.263 63.8901C117.223 62.7268 117.223 61.5734 117.263 60.4367C117.302 59.5625 117.536 58.9277 117.962 58.5321C118.387 58.1366 118.974 57.9372 119.723 57.9372C120.221 57.9372 120.626 58.0169 120.933 58.1765C121.24 58.336 121.484 58.5222 121.662 58.7415C121.84 58.9609 121.975 59.167 122.068 59.3664C122.12 59.4595 122.183 59.5293 122.256 59.5758C122.328 59.6223 122.437 59.6456 122.579 59.6456H125.454C125.573 59.6456 125.675 59.6057 125.761 59.5259C125.847 59.4462 125.883 59.3465 125.87 59.2268C125.857 58.7515 125.715 58.2662 125.448 57.7776C125.177 57.289 124.785 56.837 124.267 56.4282C123.749 56.0193 123.11 55.6903 122.348 55.4476C121.586 55.205 120.715 55.082 119.729 55.082C118.509 55.082 117.447 55.2881 116.541 55.6969C115.634 56.1058 114.935 56.7007 114.433 57.4818C113.935 58.2629 113.658 59.2135 113.606 60.3403C113.592 60.9219 113.586 61.5335 113.586 62.175C113.586 62.8165 113.592 63.4214 113.606 63.9898C113.658 65.1398 113.932 66.117 114.423 66.9181C114.915 67.7191 115.611 68.3274 116.511 68.7428C117.411 69.1583 118.483 69.3677 119.729 69.3677C120.976 69.3677 122.071 69.1517 123.007 68.7229M131.245 69.1616C131.39 69.1616 131.509 69.1151 131.601 69.022C131.694 68.929 131.74 68.8093 131.74 68.6631V63.7206H136.604V68.6631C136.604 68.8093 136.65 68.929 136.742 69.022C136.835 69.1151 136.953 69.1616 137.099 69.1616H139.638C139.783 69.1616 139.902 69.1151 139.994 69.022C140.086 68.929 140.132 68.8093 140.132 68.6631V55.7634C140.132 55.6172 140.086 55.5008 139.994 55.4078C139.902 55.3147 139.783 55.2682 139.638 55.2682H137.099C136.953 55.2682 136.835 55.3147 136.742 55.4078C136.65 55.5008 136.604 55.6172 136.604 55.7634V60.5464H131.74V55.7634C131.74 55.6172 131.694 55.5008 131.601 55.4078C131.509 55.3147 131.39 55.2682 131.245 55.2682H128.706C128.561 55.2682 128.442 55.3147 128.353 55.4078C128.261 55.5008 128.215 55.6172 128.215 55.7634V68.6631C128.215 68.8093 128.261 68.929 128.353 69.022C128.445 69.1151 128.564 69.1616 128.706 69.1616H131.245ZM155.285 68.8426C156.179 68.4969 156.878 67.9983 157.383 67.3435C157.887 66.6887 158.141 65.9143 158.141 65.0135C158.141 64.2059 157.97 63.5344 157.63 62.9993C157.287 62.4642 156.75 62.0254 156.014 61.6897C155.279 61.3507 154.313 61.0715 153.119 60.8455C152.397 60.6859 151.829 60.5364 151.414 60.3901C151.002 60.2439 150.705 60.071 150.527 59.8749C150.349 59.6755 150.26 59.4462 150.26 59.1803C150.26 58.7581 150.421 58.4424 150.741 58.2363C151.061 58.0302 151.513 57.9272 152.09 57.9272C152.628 57.9272 153.063 58.0369 153.399 58.2563C153.732 58.4756 153.94 58.7282 154.019 59.0207C154.098 59.1404 154.191 59.2268 154.296 59.28C154.402 59.3332 154.527 59.3598 154.669 59.3598H157.267C157.386 59.3598 157.485 59.3165 157.564 59.2301C157.643 59.1437 157.683 59.0473 157.683 58.9443C157.67 58.5188 157.541 58.0867 157.3 57.6447C157.056 57.2026 156.7 56.7805 156.229 56.385C155.757 55.9894 155.177 55.6703 154.487 55.431C153.798 55.1917 153 55.0754 152.097 55.0754C150.979 55.0754 150.016 55.2549 149.201 55.6105C148.387 55.9695 147.753 56.4647 147.302 57.0996C146.847 57.7344 146.622 58.4557 146.622 59.2634C146.622 60.071 146.807 60.769 147.173 61.3175C147.539 61.8659 148.073 62.3113 148.779 62.647C149.481 62.986 150.332 63.2586 151.328 63.4713C152.103 63.6308 152.723 63.7871 153.188 63.9366C153.653 64.0895 153.993 64.2624 154.201 64.4518C154.412 64.6446 154.517 64.8839 154.517 65.1764C154.517 65.5852 154.323 65.911 153.937 66.1503C153.548 66.3896 152.974 66.5059 152.215 66.5059C151.757 66.5059 151.371 66.4494 151.064 66.3364C150.754 66.2234 150.504 66.0772 150.316 65.891C150.125 65.7049 149.976 65.5121 149.874 65.316C149.795 65.2096 149.706 65.1232 149.607 65.0567C149.508 64.9903 149.366 64.957 149.181 64.957H146.702C146.583 64.957 146.481 65.0002 146.395 65.0867C146.309 65.1731 146.266 65.2695 146.266 65.3725C146.293 66.0605 146.53 66.7087 146.975 67.3169C147.42 67.9252 148.08 68.4204 148.944 68.796C149.811 69.1716 150.9 69.3611 152.212 69.3611C153.366 69.3611 154.392 69.1882 155.282 68.8459" fill="#ED0000"/>
</svg>
